<!DOCTYPE svg PUBLIC "-//W3C//DTD SVG 20010904//EN" "http://www.w3.org/TR/2001/REC-SVG-20010904/DTD/svg10.dtd">
<svg version="1.0" xmlns="http://www.w3.org/2000/svg" width="200px" height="200px" viewBox="0 0 2000 2000" preserveAspectRatio="xMidYMid meet">
<g id="layer101" fill="#1563b0" stroke="none">
 <path d="M597 1857 c-66 -66 -91 -137 -90 -262 1 -55 7 -124 16 -153 l14 -53 -41 -28 c-67 -47 -161 -152 -195 -219 -48 -94 -63 -175 -61 -326 2 -77 -2 -143 -9 -159 -15 -39 -14 -111 3 -152 15 -35 15 -35 79 -35 56 0 71 -4 113 -33 94 -62 97 -119 13 -212 -50 -54 -51 -56 -35 -81 23 -34 54 -44 145 -44 88 0 236 33 322 73 45 20 82 26 218 36 259 19 547 70 654 115 43 18 44 24 17 130 -50 198 -193 350 -394 419 -42 15 -109 38 -149 52 l-72 25 3 80 c2 44 1 80 -2 80 -23 0 -197 -55 -223 -70 -27 -16 -38 -17 -65 -8 -118 40 -171 137 -113 206 21 25 33 30 92 35 107 9 155 31 238 107 40 38 82 73 94 79 37 20 23 31 -41 31 -155 1 -276 33 -343 92 -69 61 -82 112 -72 283 2 28 -1 30 -35 33 -33 3 -43 -2 -81 -41z m156 -374 c24 -21 63 -40 110 -54 39 -11 78 -23 86 -25 11 -4 10 -8 -6 -19 -36 -26 -108 -36 -179 -26 -79 12 -111 0 -143 -52 -43 -70 -56 -149 -55 -340 0 -171 0 -178 -20 -182 -12 -3 -42 -9 -69 -15 -26 -6 -69 -19 -96 -29 -60 -22 -61 -21 -61 82 1 208 118 433 282 538 l47 30 -14 38 c-7 22 -20 53 -29 69 -20 39 -20 94 0 133 l15 30 48 -73 c26 -40 64 -87 84 -105z m-12 -454 c97 -96 252 -167 492 -228 43 -11 81 -22 84 -24 3 -3 2 -19 -2 -36 -5 -22 -18 -37 -52 -55 -25 -14 -50 -23 -55 -20 -5 3 -30 1 -54 -6 -40 -12 -46 -11 -58 5 -20 28 -46 12 -46 -28 0 -61 17 -72 117 -72 70 0 95 4 121 20 37 22 98 106 108 148 8 33 13 32 93 -16 70 -41 153 -122 180 -174 12 -25 21 -61 21 -88 l0 -46 -57 6 c-112 13 -355 65 -461 100 -126 41 -207 85 -230 125 l-16 28 -38 -19 -38 -19 0 31 c0 25 -3 30 -16 25 -9 -4 -36 3 -61 15 -50 24 -85 76 -114 171 -21 67 -36 225 -25 255 7 16 9 16 24 -7 8 -14 46 -55 83 -91z m349 2 c0 -4 -9 -20 -21 -35 -21 -27 -52 -33 -79 -16 -19 12 -6 25 45 44 48 18 55 19 55 7z m-415 -338 c14 -18 39 -40 55 -50 27 -15 29 -22 35 -100 9 -100 27 -111 46 -28 12 55 29 66 29 19 0 -28 16 -64 29 -64 5 0 11 17 15 38 10 64 13 64 106 27 126 -50 307 -102 462 -134 76 -15 141 -30 144 -34 12 -12 -41 -26 -196 -52 -376 -62 -525 -54 -706 38 -61 31 -196 136 -189 148 3 4 27 11 53 15 68 9 108 31 125 67 40 84 14 96 -90 43 -38 -19 -94 -41 -124 -49 -70 -20 -159 -30 -159 -19 0 23 64 102 95 116 19 9 66 20 105 25 39 5 81 16 93 24 26 17 35 13 72 -30z m0 -431 l63 -39 -61 -22 c-80 -27 -138 -28 -155 -1 -11 17 -10 20 8 20 12 0 30 16 46 40 15 22 29 40 31 40 2 0 33 -17 68 -38z"/>
 <path d="M1082 457 c-6 -6 -13 -24 -17 -39 -9 -37 23 -55 68 -37 18 7 33 13 35 15 2 1 -4 18 -12 38 -11 27 -21 36 -39 36 -14 0 -29 -6 -35 -13z"/>
 </g>

</svg>